<?xml version="1.0" encoding="UTF-8" standalone="no"?>
<svg
        version="1.0"
        width="400pt"
        height="400pt"
        viewBox="0 0 400 400"
        preserveAspectRatio="xMidYMid"
        id="svg62"
        xmlns="http://www.w3.org/2000/svg"
>
  <defs
          id="defs66"/>
  <g
          transform="matrix(0.1,0,0,-0.1,0,404)"
          fill="#000000"
          stroke="none"
          id="g60">
    <g
            id="g399"
            transform="matrix(1.3748463,0,0,1.3748463,-632.42924,-702.81837)">
      <path
              d="m 1587,3443 c -3,-5 -8,-48 -12,-98 -4,-49 -11,-99 -15,-110 -5,-13 -31,-28 -76,-44 -38,-13 -95,-37 -127,-53 -37,-18 -63,-26 -70,-20 -7,5 -44,34 -83,65 -39,32 -75,57 -80,57 -5,0 -112,-103 -238,-229 l -229,-230 71,-84 72,-85 -34,-74 c -19,-40 -44,-101 -56,-134 l -22,-62 -66,-6 c -37,-4 -88,-9 -114,-12 l -48,-6 v -328 -328 l 68,-6 c 37,-4 89,-10 116,-14 49,-7 49,-7 67,-62 10,-30 35,-89 55,-131 l 37,-77 -67,-82 c -36,-45 -66,-85 -66,-89 0,-3 103,-109 229,-235 l 230,-229 68,55 c 109,88 95,85 199,40 50,-22 110,-46 132,-53 40,-12 41,-13 47,-68 4,-31 9,-81 13,-111 l 7,-55 203,-3 202,-2 v 175 175 h 179 180 l 35,-53 c 56,-83 121,-117 221,-117 61,0 118,25 166,72 50,50 72,102 73,173 1,108 -45,185 -141,235 -50,25 -152,29 -205,7 -46,-19 -100,-68 -123,-111 l -20,-36 h -182 -182 l -3,83 -3,82 -115,7 c -261,15 -460,130 -613,357 -47,71 -82,162 -102,270 -20,109 -19,176 5,290 48,235 196,424 415,531 114,56 215,80 335,80 h 80 v 85 85 h 183 182 l 20,-36 c 42,-79 124,-126 220,-127 167,-1 279,142 245,310 -11,49 -20,65 -69,113 -76,75 -154,97 -253,70 -44,-13 -131,-88 -148,-130 l -12,-30 h -184 -184 v 175 175 h -204 c -113,0 -207,-3 -209,-7 z"
              id="path6"/>
      <path
              d="m 3054,2920 c -68,-16 -142,-78 -168,-141 -8,-20 -18,-59 -22,-88 l -7,-52 -138,-70 -139,-69 h -403 c -329,0 -414,-3 -462,-15 -230,-60 -387,-263 -387,-500 0,-205 104,-370 289,-457 82,-39 197,-47 640,-48 h 333 l 134,-67 134,-67 6,-50 c 4,-28 16,-70 27,-93 26,-54 97,-119 145,-132 200,-56 377,117 320,311 -45,157 -210,225 -361,148 l -62,-32 -150,75 -150,76 -439,3 -439,3 -66,32 c -107,53 -169,136 -188,252 -25,153 56,304 194,367 49,22 61,22 490,28 l 440,6 156,77 155,76 40,-26 c 109,-71 240,-54 328,44 164,182 -10,467 -250,409 z"
              id="path18"/>
      <path
              d="m 3047,2236 c -59,-16 -115,-60 -145,-114 l -23,-42 h -565 -564 v -85 -85 h 563 564 l 10,-23 c 18,-40 64,-87 111,-114 38,-23 58,-27 116,-27 81,-1 130,20 183,76 94,98 97,237 6,338 -66,73 -162,102 -256,76 z"
              id="path20"/>
    </g>
  </g>
</svg>
