<?xml version="1.0" encoding="UTF-8" standalone="no"?>
<svg
   version="1.0"
   width="1700.000000pt"
   height="404.000000pt"
   viewBox="0 0 1700.000000 404.000000"
   preserveAspectRatio="xMidYMid meet"
   id="svg62"
   sodipodi:docname="logo2.svg"
   inkscape:version="1.2.1 (9c6d41e, 2022-07-14)"
   inkscape:export-filename="logo2.png"
   inkscape:export-xdpi="96"
   inkscape:export-ydpi="96"
   xmlns:inkscape="http://www.inkscape.org/namespaces/inkscape"
   xmlns:sodipodi="http://sodipodi.sourceforge.net/DTD/sodipodi-0.dtd"
   xmlns="http://www.w3.org/2000/svg"
   xmlns:svg="http://www.w3.org/2000/svg">
  <defs
     id="defs66" />
  <sodipodi:namedview
     id="namedview64"
     pagecolor="#ffffff"
     bordercolor="#000000"
     borderopacity="0.25"
     inkscape:showpageshadow="2"
     inkscape:pageopacity="0.0"
     inkscape:pagecheckerboard="0"
     inkscape:deskcolor="#d1d1d1"
     inkscape:document-units="pt"
     showgrid="false"
     inkscape:zoom="0.14244552"
     inkscape:cx="979.32178"
     inkscape:cy="-157.95513"
     inkscape:window-width="1440"
     inkscape:window-height="847"
     inkscape:window-x="0"
     inkscape:window-y="25"
     inkscape:window-maximized="1"
     inkscape:current-layer="g60" />
  <g
     transform="translate(0.000000,404.000000) scale(0.100000,-0.100000)"
     fill="#000000"
     stroke="none"
     id="g60">
    <path
       d="M9920 2654 l0 -835 438 3 c387 4 443 6 492 22 249 82 366 260 339 516 -13 120 -76 231 -168 294 l-40 28 53 53 c67 67 104 142 116 241 26 204 -59 368 -233 454 -112 55 -161 60 -599 60 l-398 0 0 -836z m811 578 c101 -33 149 -99 149 -205 0 -84 -16 -123 -68 -168 -67 -57 -91 -62 -369 -66 l-253 -5 0 232 0 232 253 -5 c155 -2 266 -8 288 -15z m-39 -696 c82 -6 160 -44 195 -97 26 -39 28 -50 28 -139 0 -88 -2 -100 -27 -137 -56 -85 -136 -103 -459 -103 l-239 0 0 244 0 245 223 -5 c122 -2 248 -6 279 -8z"
       id="path4" />
    <path
       d="M8115 3351 l-130 -46 -3 -138 -3 -137 -254 0 -255 0 0 143 c0 157 -7 217 -24 217 -6 0 -65 -20 -131 -44 l-120 -43 -3 -137 -3 -136 -104 0 -105 0 0 -120 0 -120 105 0 105 0 1 -37 c1 -21 4 -182 8 -358 7 -303 9 -323 31 -378 45 -113 147 -187 285 -206 67 -10 171 -2 240 17 l30 8 3 122 c3 139 8 133 -85 106 -68 -20 -144 -14 -181 13 -47 35 -51 64 -51 401 l-1 312 255 0 255 0 0 -257 c0 -339 11 -465 45 -536 30 -64 97 -130 163 -160 59 -27 234 -36 324 -17 l60 13 -4 118 c-2 64 -6 120 -9 124 -4 3 -33 -1 -65 -11 -63 -18 -147 -15 -183 8 -48 30 -51 54 -51 397 l0 321 155 0 c176 0 162 -8 167 93 3 47 13 26 207 -430 113 -263 215 -501 227 -528 l22 -51 -40 -83 c-68 -141 -150 -204 -322 -242 -58 -13 -58 -13 -53 -45 14 -84 50 -194 64 -194 42 0 188 46 263 83 123 60 209 149 275 282 28 55 170 379 316 720 l267 620 -62 6 c-33 4 -94 7 -134 8 l-73 1 -31 -67 c-24 -54 -287 -681 -318 -758 -10 -25 -10 -25 -206 457 l-149 368 -287 0 -288 0 -1 88 c-1 48 -4 130 -8 183 l-6 97 -130 -47z"
       id="path8" />
    <path
       d="M5652 3048 c-70 -8 -155 -43 -212 -88 l-37 -30 -7 50 -7 50 -132 0 -133 0 8 -57 c5 -32 11 -304 14 -605 l6 -548 134 0 133 0 3 388 c3 382 3 388 27 439 28 64 95 128 147 142 54 15 152 14 207 -3 25 -7 48 -11 51 -8 10 10 6 251 -4 257 -20 12 -137 20 -198 13z"
       id="path10" />
    <path
       d="M6364 3048 c-219 -23 -396 -176 -471 -406 -23 -72 -29 -300 -9 -389 24 -117 68 -197 155 -284 121 -120 224 -159 427 -159 185 0 338 49 446 143 l38 32 -46 103 c-26 56 -51 102 -55 102 -5 0 -30 -15 -56 -34 -92 -65 -175 -98 -280 -110 -57 -7 -172 13 -221 38 -68 35 -132 147 -145 254 l-5 42 410 0 411 0 -7 118 c-8 141 -26 215 -73 304 -96 183 -282 271 -519 246z m191 -247 c56 -25 102 -76 125 -138 11 -30 20 -58 20 -63 0 -6 -104 -10 -270 -10 -157 0 -270 4 -270 9 0 23 41 102 71 136 51 58 118 85 209 85 51 0 88 -6 115 -19z"
       id="path12" />
    <path
       d="M11760 3035 c-87 -24 -156 -63 -220 -121 -76 -71 -122 -142 -157 -240 -26 -74 -27 -90 -28 -244 0 -136 3 -175 19 -220 70 -206 203 -339 387 -386 83 -22 235 -22 318 0 183 47 319 178 383 371 20 62 23 89 23 230 0 174 -8 219 -57 320 -64 131 -172 229 -303 276 -80 29 -283 36 -365 14z m262 -241 c104 -35 168 -128 188 -274 23 -169 -17 -341 -97 -412 -70 -63 -222 -81 -321 -38 -92 40 -140 115 -162 254 -37 228 38 418 186 471 52 19 150 19 206 -1z"
       id="path14" />
    <path
       d="M13135 3041 c-55 -14 -120 -48 -157 -80 -40 -35 -48 -29 -48 35 l0 34 -136 0 c-126 0 -136 -1 -129 -17 4 -10 11 -281 16 -603 4 -322 8 -586 8 -587 1 -2 62 -3 136 -3 l135 0 0 378 c0 306 3 388 15 429 37 123 129 188 255 181 80 -4 113 -23 144 -84 20 -37 21 -57 24 -471 l3 -433 139 0 139 0 3 403 c3 400 3 402 27 450 28 56 91 113 140 127 93 26 196 1 231 -54 32 -53 40 -152 40 -548 l0 -378 137 0 136 0 -7 451 c-6 395 -9 458 -25 510 -37 119 -97 190 -201 238 -46 21 -73 26 -165 29 -93 3 -120 1 -173 -17 -74 -25 -133 -60 -182 -107 l-36 -34 -37 44 c-24 29 -61 57 -103 77 -62 31 -74 33 -183 36 -64 1 -129 -1 -146 -6z"
       id="path16" />
    <path
       d="M3925 1071 c-76 -19 -125 -72 -125 -134 0 -84 49 -127 168 -148 82 -14 111 -28 128 -61 36 -69 -11 -118 -111 -118 -69 0 -93 12 -111 56 -12 30 -19 34 -50 34 -35 0 -35 -1 -29 -32 11 -48 21 -64 62 -95 33 -25 44 -28 112 -27 92 1 162 28 184 71 38 73 25 152 -31 190 -18 12 -68 30 -110 39 -88 19 -127 36 -136 59 -24 65 17 105 109 105 64 0 83 -11 98 -52 5 -13 17 -18 43 -18 34 0 36 1 29 28 -19 79 -128 127 -230 103z"
       id="path22" />
    <path
       d="M4595 1065 c-37 -10 -60 -24 -91 -58 -47 -52 -64 -101 -64 -184 0 -192 120 -307 284 -273 115 24 176 118 176 273 0 137 -56 222 -160 246 -58 13 -84 13 -145 -4z m180 -86 c43 -38 58 -90 53 -184 -5 -83 -29 -140 -72 -167 -24 -15 -45 -18 -95 -15 -58 3 -66 6 -96 39 -56 60 -70 189 -31 282 21 52 67 76 143 76 55 0 66 -3 98 -31z"
       id="path24" />
    <path
       d="M12945 1075 c-5 -2 -27 -6 -48 -10 -51 -8 -111 -64 -134 -123 -24 -62 -24 -179 0 -249 69 -198 357 -199 423 -1 19 59 22 175 4 238 -18 66 -80 124 -148 139 -53 11 -78 13 -97 6z m116 -81 c87 -45 95 -283 12 -356 -43 -38 -154 -38 -197 0 -59 53 -80 216 -37 300 11 23 33 48 49 56 36 20 135 20 173 0z"
       id="path26" />
    <path
       d="M5180 809 l0 -260 33 3 32 3 3 112 3 112 107 3 107 3 0 30 0 30 -107 3 -108 3 0 74 0 74 113 3 112 3 3 33 3 32 -150 0 -151 0 0 -261z"
       id="path28" />
    <path
       d="M5720 1035 l0 -35 85 0 85 0 0 -225 0 -225 35 0 35 0 0 225 0 224 83 3 82 3 3 33 3 32 -205 0 -206 0 0 -35z"
       id="path30" />
    <path
       d="M6334 1043 c4 -15 37 -131 75 -258 l68 -230 33 0 33 0 56 202 c31 111 59 204 62 207 3 3 30 -85 61 -197 l55 -202 36 -3 36 -3 22 73 c104 349 125 424 122 431 -6 10 -61 9 -67 -2 -3 -5 -24 -78 -46 -162 -23 -85 -46 -172 -52 -194 -13 -50 -12 -54 -74 184 l-48 181 -42 0 -43 0 -15 -52 c-8 -29 -31 -117 -52 -195 -20 -79 -40 -143 -44 -143 -4 0 -30 87 -57 193 l-50 192 -37 3 c-37 3 -38 3 -32 -25z"
       id="path32" />
    <path
       d="M7403 1053 c-4 -10 -51 -124 -105 -253 -54 -129 -98 -238 -98 -242 0 -5 15 -8 34 -8 33 0 35 2 62 70 l27 70 127 0 127 0 27 -64 c19 -44 34 -66 49 -70 34 -9 47 -7 47 7 0 6 -47 122 -104 257 l-103 245 -42 3 c-32 3 -43 -1 -48 -15z m101 -196 l45 -107 -99 0 -99 0 47 114 c26 63 50 112 54 108 4 -4 27 -56 52 -115z"
       id="path34" />
    <path
       d="M7950 811 l0 -261 35 0 35 0 0 115 0 115 74 0 c53 0 79 -4 90 -15 8 -8 22 -50 31 -93 24 -112 23 -110 56 -117 17 -4 33 -5 35 -2 3 3 -4 51 -15 108 -17 86 -26 108 -48 129 l-28 25 43 41 c35 33 42 47 42 78 0 20 -7 50 -15 66 -26 50 -65 63 -207 68 l-128 5 0 -262z m255 164 c27 -26 30 -41 16 -78 -12 -30 -54 -45 -136 -49 l-60 -2 -3 77 -3 77 81 0 c73 0 83 -3 105 -25z"
       id="path36" />
    <path
       d="M8580 810 l0 -260 160 0 160 0 0 30 0 30 -125 0 -125 0 0 85 0 84 118 3 117 3 3 33 3 32 -120 0 -121 0 0 75 0 74 123 3 122 3 3 33 3 32 -160 0 -161 0 0 -260z"
       id="path38" />
    <path
       d="M9660 810 l0 -263 118 5 c169 8 222 34 268 133 44 93 28 243 -34 309 -47 50 -101 67 -233 73 l-119 6 0 -263z m260 168 c54 -37 73 -71 78 -138 6 -80 -4 -123 -35 -160 -37 -45 -76 -61 -159 -67 l-74 -6 0 197 0 196 79 0 c64 0 84 -4 111 -22z"
       id="path40" />
    <path
       d="M10350 810 l0 -260 160 0 160 0 0 30 0 30 -125 0 -125 0 0 84 c0 99 -6 96 143 96 97 0 97 0 97 25 0 23 -4 25 -43 25 -24 0 -78 3 -120 6 l-77 7 0 73 0 73 123 3 122 3 3 33 3 32 -160 0 -161 0 0 -260z"
       id="path42" />
    <path
       d="M10910 1066 c0 -4 143 -411 167 -474 16 -42 17 -43 56 -40 l40 3 89 254 c49 139 87 255 84 258 -3 3 -21 2 -40 -1 l-35 -7 -68 -204 c-37 -113 -70 -201 -74 -197 -4 4 -37 98 -74 210 l-67 202 -39 0 c-21 0 -39 -2 -39 -4z"
       id="path44" />
    <path
       d="M11600 810 l0 -260 160 0 160 0 0 30 0 30 -125 0 -125 0 0 85 0 84 118 3 117 3 3 33 3 32 -120 0 -121 0 0 75 0 74 123 3 122 3 3 33 3 32 -160 0 -161 0 0 -260z"
       id="path46" />
    <path
       d="M12200 810 l0 -260 150 0 150 0 0 30 0 29 -112 3 -113 3 -3 228 -2 227 -35 0 -35 0 0 -260z"
       id="path48" />
    <path
       d="M13480 811 l0 -261 35 0 35 0 0 109 0 108 83 5 c99 7 151 28 174 72 22 41 21 112 -1 154 -25 49 -71 64 -208 70 l-118 5 0 -262z m247 173 c43 -27 42 -101 -2 -130 -13 -9 -56 -18 -99 -21 l-76 -6 0 85 c0 47 3 87 6 91 11 10 148 -5 171 -19z"
       id="path50" />
    <path
       d="M14100 811 l0 -261 35 0 35 0 0 217 c0 119 3 214 6 211 3 -3 40 -100 82 -214 77 -208 77 -209 107 -209 29 0 30 1 110 218 l80 219 3 -221 2 -221 35 0 35 0 0 260 0 260 -57 0 -58 0 -29 -83 c-68 -195 -119 -328 -123 -323 -2 2 -35 91 -73 196 -38 106 -71 194 -73 196 -2 2 -29 6 -60 10 l-57 7 0 -262z"
       id="path52" />
    <path
       d="M14920 810 l0 -260 160 0 160 0 0 30 0 30 -125 0 -125 0 0 85 0 85 120 0 120 0 0 35 0 35 -120 0 -120 0 0 75 0 74 123 3 122 3 3 33 3 32 -160 0 -161 0 0 -260z"
       id="path54" />
    <path
       d="M15520 811 l0 -261 40 0 40 0 2 205 3 204 100 -185 c54 -102 104 -192 110 -200 5 -8 34 -17 63 -21 l52 -6 0 262 0 261 -35 0 -35 0 -2 -212 -3 -213 -102 190 c-56 105 -108 198 -115 208 -8 11 -33 20 -65 24 l-53 6 0 -262z"
       id="path56" />
    <path
       d="M16172 1038 l3 -33 83 -3 82 -3 0 -224 0 -225 35 0 35 0 0 225 0 225 85 0 85 0 0 35 0 35 -206 0 -205 0 3 -32z"
       id="path58" />
    <path
       d="M3740 2655 l0 -835 140 0 140 0 0 343 0 344 98 6 c53 4 171 7 262 7 186 0 256 12 352 61 114 58 206 169 238 288 6 25 12 86 12 137 0 102 -19 183 -58 250 -35 60 -121 137 -194 174 -109 55 -153 60 -592 60 l-398 0 0 -835z m795 580 c117 -31 175 -107 175 -230 -1 -110 -44 -182 -135 -221 -32 -14 -75 -19 -205 -21 -91 -2 -207 -4 -258 -6 l-92 -2 0 248 0 247 228 0 c173 0 242 -4 287 -15z"
       id="path2" />
    <g
       id="g399"
       transform="matrix(0.92172616,0,0,0.92172616,70.94946,816.15631)">
      <path
         d="m 1587,3443 c -3,-5 -8,-48 -12,-98 -4,-49 -11,-99 -15,-110 -5,-13 -31,-28 -76,-44 -38,-13 -95,-37 -127,-53 -37,-18 -63,-26 -70,-20 -7,5 -44,34 -83,65 -39,32 -75,57 -80,57 -5,0 -112,-103 -238,-229 l -229,-230 71,-84 72,-85 -34,-74 c -19,-40 -44,-101 -56,-134 l -22,-62 -66,-6 c -37,-4 -88,-9 -114,-12 l -48,-6 v -328 -328 l 68,-6 c 37,-4 89,-10 116,-14 49,-7 49,-7 67,-62 10,-30 35,-89 55,-131 l 37,-77 -67,-82 c -36,-45 -66,-85 -66,-89 0,-3 103,-109 229,-235 l 230,-229 68,55 c 109,88 95,85 199,40 50,-22 110,-46 132,-53 40,-12 41,-13 47,-68 4,-31 9,-81 13,-111 l 7,-55 203,-3 202,-2 v 175 175 h 179 180 l 35,-53 c 56,-83 121,-117 221,-117 61,0 118,25 166,72 50,50 72,102 73,173 1,108 -45,185 -141,235 -50,25 -152,29 -205,7 -46,-19 -100,-68 -123,-111 l -20,-36 h -182 -182 l -3,83 -3,82 -115,7 c -261,15 -460,130 -613,357 -47,71 -82,162 -102,270 -20,109 -19,176 5,290 48,235 196,424 415,531 114,56 215,80 335,80 h 80 v 85 85 h 183 182 l 20,-36 c 42,-79 124,-126 220,-127 167,-1 279,142 245,310 -11,49 -20,65 -69,113 -76,75 -154,97 -253,70 -44,-13 -131,-88 -148,-130 l -12,-30 h -184 -184 v 175 175 h -204 c -113,0 -207,-3 -209,-7 z"
         id="path6" />
      <path
         d="m 3054,2920 c -68,-16 -142,-78 -168,-141 -8,-20 -18,-59 -22,-88 l -7,-52 -138,-70 -139,-69 h -403 c -329,0 -414,-3 -462,-15 -230,-60 -387,-263 -387,-500 0,-205 104,-370 289,-457 82,-39 197,-47 640,-48 h 333 l 134,-67 134,-67 6,-50 c 4,-28 16,-70 27,-93 26,-54 97,-119 145,-132 200,-56 377,117 320,311 -45,157 -210,225 -361,148 l -62,-32 -150,75 -150,76 -439,3 -439,3 -66,32 c -107,53 -169,136 -188,252 -25,153 56,304 194,367 49,22 61,22 490,28 l 440,6 156,77 155,76 40,-26 c 109,-71 240,-54 328,44 164,182 -10,467 -250,409 z"
         id="path18" />
      <path
         d="m 3047,2236 c -59,-16 -115,-60 -145,-114 l -23,-42 h -565 -564 v -85 -85 h 563 564 l 10,-23 c 18,-40 64,-87 111,-114 38,-23 58,-27 116,-27 81,-1 130,20 183,76 94,98 97,237 6,338 -66,73 -162,102 -256,76 z"
         id="path20" />
    </g>
  </g>
</svg>
